<svg xmlns="http://www.w3.org/2000/svg" xmlns:xlink="http://www.w3.org/1999/xlink" viewBox="0 0 39.27 36.46"><defs><style>.cls-1{isolation:isolate;}.cls-2{opacity:0.35;mix-blend-mode:multiply;fill:url(#radial-gradient);}.cls-3{fill:url(#linear-gradient);}.cls-4,.cls-7{fill:#fff;}.cls-5{fill:#eb2874;}.cls-6,.cls-7{mix-blend-mode:overlay;}.cls-7{opacity:0.29;}.cls-8{fill:#263742;}</style><radialGradient id="radial-gradient" cx="49.64" cy="-282.12" r="8.29" gradientTransform="matrix(1.42, 0.1, -0.03, 0.34, -62.87, 125.32)" gradientUnits="userSpaceOnUse"><stop offset="0.11" stop-color="#3b3b3b"/><stop offset="0.29" stop-color="#a3a3a3"/><stop offset="0.35" stop-color="#bfbfbf"/><stop offset="0.43" stop-color="#d6d6d6"/><stop offset="0.51" stop-color="#e8e8e8"/><stop offset="0.6" stop-color="#f5f5f5"/><stop offset="0.73" stop-color="#fdfdfd"/><stop offset="1" stop-color="#fff"/></radialGradient><linearGradient id="linear-gradient" x1="-128.25" y1="122.35" x2="-104.15" y2="122.35" gradientTransform="matrix(0.98, 0.18, -0.18, 0.98, 154.55, -82.57)" gradientUnits="userSpaceOnUse"><stop offset="0" stop-color="#380e87"/><stop offset="1" stop-color="#d60ea4"/></linearGradient></defs><title>Asset 14</title><g class="cls-1"><g id="Layer_2" data-name="Layer 2"><g id="Layer_1-2" data-name="Layer 1"><path class="cls-2" d="M3.14,32.61c.12-1.58,5.5-2.46,12-2s11.71,2.14,11.6,3.72-5.5,2.46-12,2S3,34.19,3.14,32.61Z"/><path class="cls-3" d="M9.54,0l-2,11.35,7.55,1.34,1.41-1.85,3.83.69A34.62,34.62,0,0,0,9,29.91l-.38,1.57,12.06,2.16.55-3.13A34.15,34.15,0,0,1,31.76,10.85l.38-.35,1.12-6.27Z"/><path class="cls-4" d="M10.77,1.77,10,6.26,9.64,8.07l-.36,2,5.13.92,1.42-1.85,8.07,1.44A33.51,33.51,0,0,0,10.43,30.27l9,1.6.29-1.62A35.41,35.41,0,0,1,30.73,9.73l.76-4.26Z"/><path class="cls-4" d="M20.13,32.92,9.32,31l.23-.94a34.2,34.2,0,0,1,12.17-18.9l-5.51-1L14.79,12,8.23,10.85,10,.72l22.51,4-1,5.46-.23.2a34.75,34.75,0,0,0-10.77,20Zm-8.58-3.37,7.11,1.27.13-.73A36.46,36.46,0,0,1,29.89,9.27l.55-3.07L11.5,2.82,10.33,9.38,14,10l1.41-1.85L26.15,10.1l-1.72,1.25A33,33,0,0,0,11.55,29.55Z"/><path class="cls-5" d="M10.77,1.77,10,6.26,9.64,8.07l-.36,2,5.13.92,1.42-1.85,8.07,1.44A33.51,33.51,0,0,0,10.43,30.27l9,1.6.29-1.62A35.41,35.41,0,0,1,30.73,9.73l.76-4.26Z"/><g class="cls-6"><polygon class="cls-4" points="9.9 8.76 10.23 6.95 11.03 2.46 31.38 6.09 31.49 5.47 10.77 1.77 9.97 6.26 9.64 8.07 9.28 10.11 9.65 10.18 9.9 8.76"/><path class="cls-4" d="M24.16,11.31l-1-.17A33.41,33.41,0,0,0,10.43,30.27l.42.07A33.54,33.54,0,0,1,24.16,11.31Z"/></g><path class="cls-7" d="M10,6.26,9.64,8.07l-.36,2,5.13.92,1.42-1.85,8.07,1.44a37.91,37.91,0,0,0-5.85,5.22,45.83,45.83,0,0,0,7.89-.75,35.56,35.56,0,0,1,4.79-5.36l.76-4.26L10.77,1.77Z"/><path class="cls-8" d="M37.37,25.22c-.65-.51-.53-1.94-.54-2.35v0a3.75,3.75,0,0,1,0,.51s-.19,1.44-.53,1.74c-.78.68-2.74.55-2,.57,2.54,0,2.54,2.52,2.56,3.33v0c.06-1.92.05-3.13,2.26-3.29C39.82,25.67,38.14,25.81,37.37,25.22Z"/><path class="cls-8" d="M3.27,3.45c-.65-.51-.54-1.95-.54-2.35v.39c0-.07,0-.13,0-.15V1.1c0,.12,0,.3,0,.51,0,0-.19,1.44-.54,1.74-.78.68-2.73.55-2,.57C2.7,4,2.7,6.44,2.72,7.25V6.84a.23.23,0,0,1,0,.07v.34C2.78,5.33,2.78,4.12,5,4,5.72,3.9,4,4,3.27,3.45Z"/></g></g></g></svg>