<svg xmlns="http://www.w3.org/2000/svg" xmlns:xlink="http://www.w3.org/1999/xlink" viewBox="0 0 45.43 32.43"><defs><style>.cls-1{fill:#263742;}.cls-2{fill:url(#radial-gradient);}.cls-3{fill:url(#linear-gradient);}</style><radialGradient id="radial-gradient" cx="-256.39" cy="-563.67" r="19.07" gradientTransform="matrix(1.36, -0.27, 0.27, 1.36, 520.19, 705.26)" gradientUnits="userSpaceOnUse"><stop offset="0.2" stop-color="#222"/><stop offset="0.49" stop-color="#151515"/><stop offset="1"/></radialGradient><linearGradient id="linear-gradient" x1="-256.46" y1="-567.4" x2="-256.46" y2="-544.11" gradientTransform="matrix(1.36, -0.27, 0.27, 1.36, 520.19, 705.26)" gradientUnits="userSpaceOnUse"><stop offset="0" stop-color="#e6c57e"/><stop offset="0.23" stop-color="#fddd9e"/><stop offset="0.41" stop-color="#e9be5a"/><stop offset="0.59" stop-color="#94690c"/><stop offset="0.77" stop-color="#7b4900"/><stop offset="1" stop-color="#a2781c"/></linearGradient></defs><title>Asset 13</title><g id="Layer_2" data-name="Layer 2"><g id="Layer_1-2" data-name="Layer 1"><path class="cls-1" d="M43.13,27.6c-.79-.62-.64-2.35-.65-2.84v.47c0-.08,0-.16,0-.18v-.29a5.67,5.67,0,0,1,0,.62s-.23,1.74-.65,2.1c-.94.82-3.31.66-2.4.69,3.07.06,3.07,3,3.09,4v-.49a.25.25,0,0,1,0,.08v.41c.06-2.32.06-3.79,2.73-4C46.09,28.15,44.06,28.32,43.13,27.6Z"/><path class="cls-1" d="M4,3.07C3.16,2.45,3.31.72,3.3.23v0c0,.14,0,.36,0,.62C3.25.85,3,2.59,2.6,3a5.23,5.23,0,0,1-2.4.69c3.07.06,3.07,3.05,3.1,4v0c.07-2.32.06-3.79,2.73-4C6.92,3.62,4.88,3.79,4,3.07Z"/><path class="cls-2" d="M26.58,6.77C20.42,3,18.66.42,18.66.42h0s-.66,3-4.93,8.87C10.29,14,7.56,17.76,8.42,22.18a7.12,7.12,0,0,0,8.35,5.61,7.51,7.51,0,0,0,5.82-4.43c.16,2.84.3,7.12-1.18,8.65L28,30.71c-1.95-.86-3.43-4.88-4.36-7.57a7.5,7.5,0,0,0,7.06,1.91,7.11,7.11,0,0,0,5.61-8.35C35.49,12.28,31.52,9.81,26.58,6.77Z"/><path class="cls-3" d="M18.66.42S20.42,3,26.58,6.77c4.94,3,8.91,5.51,9.77,9.93a7.11,7.11,0,0,1-5.61,8.35,7.5,7.5,0,0,1-7.06-1.91c.93,2.69,2.41,6.71,4.36,7.57L21.41,32c1.48-1.53,1.34-5.81,1.18-8.65a7.51,7.51,0,0,1-5.82,4.43,7.12,7.12,0,0,1-8.35-5.61c-.86-4.42,1.87-8.21,5.3-12.89C18,3.45,18.65.42,18.65.42h0M18.58,0h0a.41.41,0,0,0-.32.32s-.72,3-4.87,8.72C10,13.65,7.11,17.63,8,22.26a7.55,7.55,0,0,0,8.84,5.94,8.59,8.59,0,0,0,5.4-3.29c.07,2.32,0,5.62-1.14,6.81a.41.41,0,0,0-.07.49.43.43,0,0,0,.45.21l6.63-1.3a.44.44,0,0,0,.34-.37.4.4,0,0,0-.25-.42c-1.51-.67-2.82-3.7-3.62-5.88a8.51,8.51,0,0,0,6.23,1,7.55,7.55,0,0,0,5.94-8.84c-.91-4.63-5.1-7.21-10-10.21C20.81,2.73,19,.2,19,.18A.41.41,0,0,0,18.58,0Z"/></g></g></svg>